<svg xmlns="http://www.w3.org/2000/svg" viewBox="-4 -4 622.97 119.00" role="img" aria-label="Citicore Properties"><path fill="#FFFFFF" d="M0.00 0.00h65.17v17.15H17.15v34.30H65.17V68.60H0.00z M29.16 30.87h15.44v37.73h-15.44z M79.97 68.60000000000001V-0.09999999999999432H98.77000000000001V68.60000000000001Z M142.17000000000002 68.60000000000001V15.400000000000006H112.17V-0.09999999999999432H190.97000000000003V15.400000000000006H160.97V68.60000000000001Z M204.27000000000004 68.60000000000001V-0.09999999999999432H223.07000000000002V68.60000000000001Z M282.77000000000004 69.80000000000001Q268.47 69.80000000000001 258.92 65.75000000000001Q249.37000000000003 61.70000000000001 244.62000000000003 53.750000000000014Q239.87000000000003 45.80000000000001 239.87000000000003 34.20000000000001Q239.87000000000003 17.200000000000003 250.82000000000005 7.950000000000003Q261.77000000000004 -1.2999999999999972 282.77000000000004 -1.2999999999999972Q294.47 -1.2999999999999972 303.42 2.1500000000000057Q312.37 5.6000000000000085 317.42 11.950000000000006Q322.47 18.300000000000004 322.47 27.10000000000001H304.07000000000005Q304.07000000000005 22.60000000000001 301.37 19.500000000000007Q298.67 16.400000000000006 293.82000000000005 14.700000000000006Q288.97 13.000000000000007 282.37 13.000000000000007Q274.97 13.000000000000007 269.77000000000004 15.450000000000006Q264.57000000000005 17.900000000000006 261.87 22.400000000000006Q259.17 26.900000000000006 259.17 32.900000000000006V35.400000000000006Q259.17 41.400000000000006 261.87 45.900000000000006Q264.57000000000005 50.400000000000006 269.77000000000004 52.900000000000006Q274.97 55.400000000000006 282.27000000000004 55.400000000000006Q289.17 55.400000000000006 294.17 53.800000000000004Q299.17 52.2 301.87 49.10000000000001Q304.57000000000005 46.00000000000001 304.57000000000005 41.60000000000001H322.47Q322.47 50.2 317.62 56.550000000000004Q312.77000000000004 62.900000000000006 303.82000000000005 66.35000000000001Q294.87 69.80000000000001 282.77000000000004 69.80000000000001Z M380.97 69.80000000000001Q367.17 69.80000000000001 357.12 65.60000000000001Q347.07000000000005 61.400000000000006 341.62 53.45Q336.17 45.50000000000001 336.17 34.20000000000001Q336.17 22.900000000000006 341.62 14.950000000000006Q347.07000000000005 7.000000000000007 357.12 2.850000000000005Q367.17 -1.2999999999999972 380.97 -1.2999999999999972Q394.87000000000006 -1.2999999999999972 404.9200000000001 2.850000000000005Q414.97 7.000000000000007 420.4200000000001 14.950000000000006Q425.87000000000006 22.900000000000006 425.87000000000006 34.20000000000001Q425.87000000000006 45.50000000000001 420.4200000000001 53.45Q414.97 61.400000000000006 404.9200000000001 65.60000000000001Q394.87000000000006 69.80000000000001 380.97 69.80000000000001ZM380.97 55.400000000000006Q386.57000000000005 55.400000000000006 391.27000000000004 54.05000000000001Q395.97 52.70000000000001 399.37 50.150000000000006Q402.77000000000004 47.60000000000001 404.62 43.85000000000001Q406.47 40.10000000000001 406.47 35.300000000000004V33.00000000000001Q406.47 28.200000000000003 404.62 24.500000000000004Q402.77000000000004 20.800000000000004 399.37 18.250000000000004Q395.97 15.700000000000003 391.27000000000004 14.350000000000005Q386.57000000000005 13.000000000000007 380.97 13.000000000000007Q375.37000000000006 13.000000000000007 370.6700000000001 14.350000000000005Q365.97 15.700000000000003 362.57000000000005 18.250000000000004Q359.17 20.800000000000004 357.37 24.500000000000004Q355.57000000000005 28.200000000000003 355.57000000000005 33.00000000000001V35.300000000000004Q355.57000000000005 40.10000000000001 357.37 43.85000000000001Q359.17 47.60000000000001 362.57000000000005 50.150000000000006Q365.97 52.70000000000001 370.6700000000001 54.05000000000001Q375.37000000000006 55.400000000000006 380.97 55.400000000000006Z M442.4700000000001 68.60000000000001V-0.09999999999999432H498.87000000000006Q506.37000000000006 -0.09999999999999432 511.1700000000001 2.9500000000000064Q515.97 6.000000000000007 518.4200000000001 10.950000000000006Q520.8700000000001 15.900000000000006 520.8700000000001 21.900000000000006Q520.8700000000001 28.300000000000004 517.72 33.650000000000006Q514.57 39.00000000000001 508.2700000000001 42.00000000000001L522.47 68.60000000000001H501.2700000000001L489.57000000000005 45.2H461.2700000000001V68.60000000000001ZM461.2700000000001 30.900000000000006H492.9700000000001Q496.9700000000001 30.900000000000006 499.2700000000001 28.550000000000004Q501.57000000000005 26.200000000000003 501.57000000000005 22.300000000000004Q501.57000000000005 19.800000000000004 500.5200000000001 17.950000000000006Q499.4700000000001 16.10000000000001 497.57000000000005 15.150000000000006Q495.6700000000001 14.200000000000003 492.9700000000001 14.200000000000003H461.2700000000001Z M537.37 68.60000000000001V-0.09999999999999432H608.3700000000001V14.200000000000003H556.2700000000001V26.700000000000003H602.1700000000001V40.80000000000001H556.2700000000001V54.20000000000001H609.1700000000001V68.60000000000001Z M144.91719999999998 110.9954V94.5761H156.65209999999996Q158.20559999999998 94.5761 159.35279999999997 95.2453Q160.49999999999997 95.9145 161.13334999999998 97.0856Q161.7667 98.25670000000001 161.7667 99.7624Q161.7667 101.2442 161.13334999999998 102.42725000000002Q160.49999999999997 103.61030000000001 159.34085 104.27950000000001Q158.18169999999998 104.9487 156.60429999999997 104.9487H147.76129999999998V110.9954ZM147.76129999999998 102.5348H155.88729999999998Q157.32129999999998 102.5348 158.09804999999997 101.78195Q158.87479999999996 101.0291 158.87479999999996 99.7624Q158.87479999999996 98.9259 158.51629999999997 98.29255Q158.15779999999998 97.6592 157.50054999999998 97.3246Q156.84329999999997 96.99000000000001 155.88729999999998 96.99000000000001H147.76129999999998Z M179.95459999999997 110.9954V94.5761H192.45429999999996Q194.10339999999997 94.5761 195.20279999999997 95.2453Q196.30219999999997 95.9145 196.86384999999996 97.0378Q197.42549999999997 98.1611 197.42549999999997 99.5712Q197.42549999999997 101.07690000000001 196.63679999999997 102.33165Q195.84809999999996 103.5864 194.29459999999997 104.2078L197.83179999999996 110.9954H194.62919999999997L191.45049999999998 104.7097H182.79869999999997V110.9954ZM182.79869999999997 102.34360000000001H191.73729999999998Q193.05179999999996 102.34360000000001 193.78074999999995 101.5788Q194.50969999999995 100.81400000000001 194.50969999999995 99.619Q194.50969999999995 98.80640000000001 194.18704999999994 98.2089Q193.86439999999996 97.6114 193.25494999999995 97.3007Q192.64549999999997 96.99000000000001 191.73729999999998 96.99000000000001H182.79869999999997Z M226.15329999999994 111.2822Q222.95069999999996 111.2822 220.60849999999994 110.3023Q218.26629999999994 109.3224 216.99959999999993 107.42235Q215.73289999999994 105.5223 215.73289999999994 102.7977Q215.73289999999994 100.0253 216.99959999999993 98.1372Q218.26629999999994 96.2491 220.60849999999994 95.2692Q222.95069999999996 94.2893 226.15329999999994 94.2893Q229.40369999999996 94.2893 231.73394999999994 95.2692Q234.06419999999994 96.2491 235.31894999999994 98.1372Q236.57369999999995 100.0253 236.57369999999995 102.7977Q236.57369999999995 105.5223 235.31894999999994 107.42235Q234.06419999999994 109.3224 231.73394999999994 110.3023Q229.40369999999996 111.2822 226.15329999999994 111.2822ZM226.17719999999994 108.8922Q227.77849999999995 108.8922 229.14079999999996 108.53370000000001Q230.50309999999996 108.1752 231.51884999999996 107.47015Q232.53459999999995 106.7651 233.09624999999994 105.65375Q233.65789999999996 104.5424 233.65789999999996 103.03670000000001V102.5109Q233.65789999999996 101.0052 233.09624999999994 99.9058Q232.53459999999995 98.80640000000001 231.51884999999996 98.08940000000001Q230.50309999999996 97.3724 229.14079999999996 97.0378Q227.77849999999995 96.70320000000001 226.17719999999994 96.70320000000001Q224.57589999999996 96.70320000000001 223.20164999999997 97.0378Q221.82739999999995 97.3724 220.81164999999996 98.08940000000001Q219.79589999999996 98.80640000000001 219.23424999999997 99.9058Q218.67259999999996 101.0052 218.67259999999996 102.5109V103.03670000000001Q218.67259999999996 104.5424 219.23424999999997 105.65375Q219.79589999999996 106.7651 220.81164999999996 107.47015Q221.82739999999995 108.1752 223.20164999999997 108.53370000000001Q224.57589999999996 108.8922 226.17719999999994 108.8922Z M255.71759999999995 110.9954V94.5761H267.45249999999993Q269.006 94.5761 270.15319999999997 95.2453Q271.30039999999997 95.9145 271.9337499999999 97.0856Q272.5670999999999 98.25670000000001 272.5670999999999 99.7624Q272.5670999999999 101.2442 271.9337499999999 102.42725000000002Q271.30039999999997 103.61030000000001 270.14124999999996 104.27950000000001Q268.98209999999995 104.9487 267.40469999999993 104.9487H258.5616999999999V110.9954ZM258.5616999999999 102.5348H266.68769999999995Q268.1216999999999 102.5348 268.8984499999999 101.78195Q269.67519999999996 101.0291 269.67519999999996 99.7624Q269.67519999999996 98.9259 269.31669999999997 98.29255Q268.9581999999999 97.6592 268.30094999999994 97.3246Q267.64369999999997 96.99000000000001 266.68769999999995 96.99000000000001H258.5616999999999Z M290.75499999999994 110.9954V94.5761H307.0308999999999V96.99000000000001H293.5990999999999V101.4115H305.64469999999994V103.8015H293.5990999999999V108.6054H307.22209999999995V110.9954Z M326.31819999999993 110.9954V94.5761H338.81789999999995Q340.4669999999999 94.5761 341.56639999999993 95.2453Q342.66579999999993 95.9145 343.2274499999999 97.0378Q343.7890999999999 98.1611 343.7890999999999 99.5712Q343.7890999999999 101.07690000000001 343.0003999999999 102.33165Q342.21169999999995 103.5864 340.6581999999999 104.2078L344.19539999999995 110.9954H340.99279999999993L337.81409999999994 104.7097H329.1622999999999V110.9954ZM329.1622999999999 102.34360000000001H338.1008999999999Q339.4153999999999 102.34360000000001 340.1443499999999 101.5788Q340.8732999999999 100.81400000000001 340.8732999999999 99.619Q340.8732999999999 98.80640000000001 340.5506499999999 98.2089Q340.22799999999995 97.6114 339.6185499999999 97.3007Q339.00909999999993 96.99000000000001 338.1008999999999 96.99000000000001H329.1622999999999Z M368.35829999999993 110.9954V97.0856H360.94929999999994V94.5761H378.5874999999999V97.0856H371.2023999999999V110.9954Z M396.5602999999999 110.9954V94.5761H399.4043999999999V110.9954Z M419.24139999999994 110.9954V94.5761H435.5172999999999V96.99000000000001H422.0854999999999V101.4115H434.13109999999995V103.8015H422.0854999999999V108.6054H435.70849999999996V110.9954Z M462.59599999999995 111.2822Q460.82739999999995 111.2822 459.23804999999993 111.06710000000001Q457.6486999999999 110.852 456.4297999999999 110.3023Q455.2108999999999 109.7526 454.5297499999999 108.73685Q453.8485999999999 107.7211 453.8485999999999 106.1198Q453.8485999999999 106.02420000000001 453.8485999999999 105.9286Q453.8485999999999 105.833 453.87249999999995 105.7852H456.69269999999995Q456.6687999999999 105.9047 456.65684999999996 106.0481Q456.64489999999995 106.1915 456.64489999999995 106.4066Q456.64489999999995 107.2431 457.3499499999999 107.80475Q458.05499999999995 108.3664 459.39339999999993 108.64125Q460.7317999999999 108.9161 462.54819999999995 108.9161Q463.3607999999999 108.9161 464.1733999999999 108.84440000000001Q464.98599999999993 108.7727 465.703 108.6054Q466.41999999999996 108.4381 466.98164999999995 108.1513Q467.54329999999993 107.8645 467.8539999999999 107.4582Q468.1646999999999 107.0519 468.1646999999999 106.5261Q468.1646999999999 105.7613 467.5910999999999 105.29525000000001Q467.0174999999999 104.8292 466.0256499999999 104.5424Q465.0337999999999 104.2556 463.8029499999999 104.0644Q462.5720999999999 103.8732 461.2575999999999 103.67005Q459.94309999999996 103.46690000000001 458.7122499999999 103.14425Q457.48139999999995 102.8216 456.48954999999995 102.29580000000001Q455.49769999999995 101.77000000000001 454.92409999999995 100.93350000000001Q454.35049999999995 100.09700000000001 454.35049999999995 98.8542Q454.35049999999995 97.85040000000001 454.8404499999999 97.0139Q455.33039999999994 96.1774 456.34614999999997 95.56795Q457.36189999999993 94.9585 458.9034499999999 94.62389999999999Q460.44499999999994 94.2893 462.5720999999999 94.2893Q464.72309999999993 94.2893 466.2287999999999 94.65975Q467.7344999999999 95.03020000000001 468.6665999999999 95.66355000000001Q469.59869999999995 96.29690000000001 470.01694999999995 97.12145000000001Q470.43519999999995 97.946 470.43519999999995 98.8542V99.2844H467.6388999999999V98.8781Q467.6388999999999 98.25670000000001 467.0533499999999 97.76675Q466.46779999999995 97.27680000000001 465.3803499999999 96.96610000000001Q464.2928999999999 96.6554 462.7871999999999 96.6554Q460.8990999999999 96.6554 459.6801999999999 96.9183Q458.46129999999994 97.1812 457.86379999999997 97.64725000000001Q457.26629999999994 98.11330000000001 457.26629999999994 98.7586Q457.26629999999994 99.4278 457.8518499999999 99.8341Q458.4373999999999 100.24040000000001 459.4292499999999 100.49135000000001Q460.4210999999999 100.7423 461.65194999999994 100.93350000000001Q462.8827999999999 101.1247 464.1853499999999 101.3398Q465.4878999999999 101.5549 466.73069999999996 101.87755000000001Q467.97349999999994 102.20020000000001 468.95339999999993 102.73795000000001Q469.9332999999999 103.2757 470.51884999999993 104.1122Q471.10439999999994 104.9487 471.10439999999994 106.16760000000001Q471.10439999999994 108.0557 470.0288999999999 109.179Q468.95339999999993 110.3023 467.02944999999994 110.79225Q465.10549999999995 111.2822 462.59599999999995 111.2822Z"/></svg>